<?xml version="1.0" standalone="no"?><!DOCTYPE svg PUBLIC "-//W3C//DTD SVG 1.1//EN" "http://www.w3.org/Graphics/SVG/1.1/DTD/svg11.dtd"><svg class="icon" width="48px" height="48.00px" viewBox="0 0 1024 1024" version="1.1" xmlns="http://www.w3.org/2000/svg"><path d="M682.666667 0c29.681159 0 51.942029 7.42029 74.202898 14.84058 81.623188 37.101449 133.565217 118.724638 133.565218 215.188406 0 59.362319-22.26087 118.724638-59.362319 163.246376l-385.855073 415.536232c-14.84058 14.84058-29.681159 22.26087-44.521739 29.68116-22.26087 7.42029-59.362319 14.84058-81.623188 0-14.84058-7.42029-29.681159-14.84058-44.521739-29.68116-14.84058-14.84058-22.26087-29.681159-29.68116-44.521739-7.42029-14.84058-7.42029-37.101449-7.42029-51.942029 0-37.101449 14.84058-74.202899 37.10145-96.463768l348.753623-385.855072c7.42029-7.42029 14.84058-14.84058 29.681159-14.84058s22.26087 7.42029 29.68116 14.84058c7.42029 7.42029 14.84058 22.26087 14.840579 29.681159 0 7.42029 0 22.26087-14.840579 37.101449L326.492754 682.666667c-7.42029 7.42029-14.84058 14.84058-14.84058 29.681159 0 22.26087 22.26087 44.521739 44.521739 44.521739 14.84058 0 22.26087-7.42029 29.681159-14.840579l385.855073-415.536232c22.26087-29.681159 29.681159-59.362319 29.681159-96.463768s-14.84058-66.782609-37.101449-96.463769c-14.84058-29.681159-51.942029-44.521739-81.623188-44.521739-37.101449 0-66.782609 14.84058-89.043479 44.521739L207.768116 549.101449c-22.26087 22.26087-37.101449 44.521739-44.521739 74.202899-22.26087 51.942029-22.26087 118.724638 0 170.666666 14.84058 29.681159 29.681159 51.942029 44.521739 74.202899 44.521739 44.521739 89.043478 66.782609 140.985507 66.782609s111.304348-22.26087 140.985507-66.782609L883.014493 460.057971c7.42029-7.42029 14.84058-14.84058 29.681159-14.84058 7.42029 0 22.26087 7.42029 29.68116 14.84058 7.42029 0 14.84058 14.84058 14.840579 22.26087 0 14.84058-7.42029 22.26087-14.840579 29.681159l-385.855073 415.536232c-59.362319 59.362319-118.724638 89.043478-207.768116 89.043478-37.101449 0-74.202899-7.42029-111.304348-22.260869-37.101449-14.84058-66.782609-37.101449-96.463768-66.782609s-44.521739-66.782609-59.362319-103.884058c-7.42029-29.681159-14.84058-66.782609-14.840579-111.304348s7.42029-81.623188 22.260869-126.144927c14.84058-37.101449 37.101449-74.202899 59.362319-103.884058L534.26087 66.782609c37.101449-44.521739 89.043478-66.782609 148.405797-66.782609" /></svg>