<?xml version="1.0" standalone="no"?><!DOCTYPE svg PUBLIC "-//W3C//DTD SVG 1.1//EN" "http://www.w3.org/Graphics/SVG/1.1/DTD/svg11.dtd">
<svg class="icon" width="48px" height="45.34px" viewBox="0 0 1084 1024" version="1.1"
    xmlns="http://www.w3.org/2000/svg">
    <path d="M240.941176 714.872471V843.294118a60.235294 60.235294 0 0 0 60.235295 60.235294h481.882353l180.705882 120.470588v-120.470588h60.235294a60.235294 60.235294 0 0 0 60.235294-60.235294V361.411765a60.235294 60.235294 0 0 0-60.235294-60.235294h-120.470588v60.235294h120.470588v481.882353h-120.470588v68.186353L801.310118 843.294118H301.176471v-168.538353l-60.235295 40.116706zM180.705882 542.117647v68.186353L282.925176 542.117647H783.058824V60.235294H60.235294v481.882353h120.470588z m-60.235294 180.705882v-120.470588H60.235294a60.235294 60.235294 0 0 1-60.235294-60.235294V60.235294a60.235294 60.235294 0 0 1 60.235294-60.235294h722.82353a60.235294 60.235294 0 0 1 60.235294 60.235294v481.882353a60.235294 60.235294 0 0 1-60.235294 60.235294H301.176471l-180.705883 120.470588z" />
</svg>