<?xml version="1.0" standalone="no"?><!DOCTYPE svg PUBLIC "-//W3C//DTD SVG 1.1//EN" "http://www.w3.org/Graphics/SVG/1.1/DTD/svg11.dtd">
<svg class="icon" width="48px" height="48.00px" viewBox="0 0 1024 1024" version="1.1"
    xmlns="http://www.w3.org/2000/svg">
    <path d="M121.6 371.2h118.4c12.8 0 25.6-12.8 25.6-25.6s-12.8-25.6-25.6-25.6h-118.4c-12.8 0-25.6 12.8-25.6 25.6s12.8 25.6 25.6 25.6z m0 182.4h118.4c12.8 0 25.6-12.8 25.6-25.6 0-6.4-3.2-12.8-6.4-19.2-6.4-6.4-12.8-6.4-19.2-6.4h-118.4c-12.8 0-25.6 12.8-25.6 25.6s12.8 25.6 25.6 25.6z m144 156.8c0-6.4-3.2-12.8-6.4-19.2-6.4-6.4-12.8-6.4-19.2-6.4h-118.4c-12.8 0-25.6 12.8-25.6 25.6s12.8 25.6 25.6 25.6h118.4c12.8 0 25.6-12.8 25.6-25.6z m80 25.6l-3.2 9.6h57.6l3.2-3.2c25.6-48 89.6-83.2 153.6-86.4h12.8c64 3.2 124.8 38.4 153.6 86.4l3.2 3.2h57.6l-3.2-9.6c-9.6-25.6-28.8-48-51.2-67.2-19.2-16-41.6-32-64-41.6 22.4-12.8 41.6-35.2 57.6-57.6 16-25.6 25.6-57.6 25.6-89.6 0-96-80-172.8-179.2-172.8-99.2 0-179.2 76.8-179.2 172.8 0 32 9.6 60.8 25.6 89.6 12.8 22.4 35.2 41.6 57.6 57.6-22.4 9.6-44.8 25.6-64 41.6-35.2 19.2-54.4 41.6-64 67.2z m214.4-377.6c70.4 0 128 54.4 128 121.6 0 67.2-57.6 121.6-128 121.6s-128-54.4-128-121.6c0-67.2 57.6-121.6 128-121.6zM864 96h-608c-54.4 0-96 41.6-96 92.8v70.4h51.2v-57.6c0-35.2 19.2-54.4 54.4-54.4h585.6c35.2 0 54.4 19.2 54.4 54.4V857.6c0 35.2-19.2 54.4-54.4 54.4h-585.6c-35.2 0-54.4-19.2-54.4-54.4v-57.6h-51.2v67.2c0 51.2 41.6 92.8 96 92.8h608c54.4 0 96-41.6 96-92.8v-675.2c0-54.4-44.8-96-96-96z" />
</svg>