<?xml version="1.0" standalone="no"?><!DOCTYPE svg PUBLIC "-//W3C//DTD SVG 1.1//EN" "http://www.w3.org/Graphics/SVG/1.1/DTD/svg11.dtd">
<svg class="icon" width="48px" height="48.00px" viewBox="0 0 1024 1024" version="1.1"
    xmlns="http://www.w3.org/2000/svg">
    <path d="M369.777778 369.777778a56.888889 56.888889 0 1 0-56.888889 56.888889 56.888889 56.888889 0 0 0 56.888889-56.888889z m347.022222 227.555555a31.288889 31.288889 0 0 0-28.444444 17.066667A191.345778 191.345778 0 0 1 512 739.555556a198.200889 198.200889 0 0 1-179.2-125.155556 28.444444 28.444444 0 0 0-28.444444-17.066667 30.321778 30.321778 0 0 0-28.444445 39.822223 261.461333 261.461333 0 0 0 233.244445 159.288888 255.232 255.232 0 0 0 233.244444-159.288888 26.766222 26.766222 0 0 0-25.6-39.822223zM512 0a512 512 0 1 0 512 512A513.507556 513.507556 0 0 0 512 0z m0 967.111111a455.111111 455.111111 0 1 1 455.111111-455.111111 456.448 456.448 0 0 1-455.111111 455.111111z m199.111111-654.222222a56.888889 56.888889 0 1 0 56.888889 56.888889 56.888889 56.888889 0 0 0-56.888889-56.888889z" />
</svg>