<?xml version="1.0" standalone="no"?><!DOCTYPE svg PUBLIC "-//W3C//DTD SVG 1.1//EN" "http://www.w3.org/Graphics/SVG/1.1/DTD/svg11.dtd"><svg class="icon" width="48px" height="38.40px" viewBox="0 0 1280 1024" version="1.1" xmlns="http://www.w3.org/2000/svg"><path d="M813.482667 477.098667c65.706667-48.896 108.117333-124.757333 108.117333-209.92C921.6 119.722667 795.306667 0 640 0 484.693333 0 358.4 119.808 358.4 267.093333c0 85.333333 42.410667 161.109333 108.117333 210.005334C293.546667 542.805333 170.666667 703.146667 170.666667 890.453333v89.002667c0 24.661333 20.992 44.544 46.933333 44.544h844.8c25.941333 0 46.933333-19.882667 46.933333-44.544v-89.002667c0-187.392-122.709333-347.733333-295.850666-413.354666zM640 89.002667c103.509333 0 187.733333 79.872 187.733333 178.090666 0 98.218667-84.224 178.090667-187.733333 178.090667S452.266667 365.312 452.266667 267.093333c0-98.133333 84.224-178.090667 187.733333-178.090666z m375.466667 845.994666H264.533333v-44.544c0-196.437333 168.448-356.181333 375.466667-356.181333 207.104 0 375.466667 159.744 375.466667 356.181333v44.544zM333.994667 512.426667c1.28-2.901333 1.28-5.973333 1.877333-8.96 0.426667-1.792 0.938667-3.584 1.194667-5.461334a47.957333 47.957333 0 0 0-0.341334-11.093333c-0.170667-1.877333 0.256-3.754667-0.170666-5.717333-0.256-1.109333-1.024-1.877333-1.365334-3.072-0.682667-2.133333-1.706667-4.010667-2.645333-5.973334a46.933333 46.933333 0 0 0-6.826667-11.093333c-0.341333-0.512-0.853333-0.853333-1.28-1.365333a43.946667 43.946667 0 0 0-14.421333-10.410667c-49.493333-23.04-81.408-74.24-81.408-130.730667 0-66.389333 43.093333-123.648 104.96-139.093333a47.957333 47.957333 0 0 0 33.706667-57.6 45.909333 45.909333 0 0 0-55.210667-35.242667c-102.997333 25.856-174.933333 121.344-174.933333 231.936 0 60.416 22.016 116.906667 59.477333 160C77.568 542.890667 0 671.573333 0 817.152v73.813333c0 26.368 20.48 47.701333 45.738667 47.701334 25.258667 0 45.738667-21.333333 45.738666-47.786667v-73.728c0-131.925333 84.992-245.162667 206.933334-277.162667a45.482667 45.482667 0 0 0 35.584-27.562666z m749.397333-33.877334a243.968 243.968 0 0 0 59.477333-160c0-107.776-69.632-202.496-169.216-230.4a45.653333 45.653333 0 0 0-56.064 33.706667 47.957333 47.957333 0 0 0 32.341334 58.453333c59.733333 16.725333 101.546667 73.557333 101.546666 138.24 0 56.490667-32 107.605333-81.408 130.645334a44.714667 44.714667 0 0 0-14.592 10.581333l-1.194666 1.109333a47.36 47.36 0 0 0-6.826667 11.349334c-0.853333 1.962667-1.962667 3.84-2.56 5.973333-0.341333 1.024-1.109333 1.877333-1.365333 2.986667-0.512 1.962667 0 3.84-0.256 5.802666a48.298667 48.298667 0 0 0-0.341334 11.008c0.256 1.877333 0.768 3.669333 1.194667 5.461334 0.597333 2.986667 0.597333 5.973333 1.877333 8.96 6.570667 15.701333 20.394667 25.344 35.584 27.562666 122.026667 32.085333 206.933333 145.237333 206.933334 277.162667v73.813333c0 26.368 20.48 47.701333 45.738666 47.701334 25.258667 0 45.738667-21.333333 45.738667-47.701334v-73.813333c0-145.578667-77.653333-274.261333-196.608-338.602667z" /></svg>