<?xml version="1.0" standalone="no"?><!DOCTYPE svg PUBLIC "-//W3C//DTD SVG 1.1//EN" "http://www.w3.org/Graphics/SVG/1.1/DTD/svg11.dtd"><svg class="icon" width="48px" height="48.00px" viewBox="0 0 1024 1024" version="1.1" xmlns="http://www.w3.org/2000/svg"><path d="M689.00486 572.124909c79.006322-55.180406 130.7762-146.675053 130.7762-250.346961 0-168.551225-136.490232-305.173608-305.173608-305.173608-168.551225 0-305.087201 136.621367-305.087201 305.173608 0 103.580419 51.547254 194.921567 130.468185 250.079609C162.135773 641.653928 36.012326 814.3232 36.012326 1016.886178c0 0.086407 0 0.086407 0 0.086407l85.691159 0c0-0.217542 0-0.484895 0-0.707519 0-200.834842 151.237333-365.976556 346.051145-388.827599 1.990406-0.131135 54.644684-4.739159 97.912132 0.729883 1.065345 0.244989 2.217097 0.331396 3.324121 0.553004l0.484895 0c189.942501 27.190699 335.996442 190.119381 335.996442 387.544712 0 0.222625 0 0.489977 0 0.707519l87.023857 0c0 0 0 0 0-0.086407C992.496077 814.544808 866.635916 641.961943 689.00486 572.124909L689.00486 572.124909zM514.785349 550.557769c-126.259665 0-228.693415-102.34226-228.693415-228.64767S388.525684 93.262429 514.785349 93.262429c126.21392 0 228.64767 102.34226 228.64767 228.64767S640.999269 550.557769 514.785349 550.557769L514.785349 550.557769zM514.785349 550.557769" /></svg>