<?xml version="1.0" standalone="no"?><!DOCTYPE svg PUBLIC "-//W3C//DTD SVG 1.1//EN" "http://www.w3.org/Graphics/SVG/1.1/DTD/svg11.dtd">
<svg class="icon" width="48px" height="48.00px" viewBox="0 0 1024 1024" version="1.1"
    xmlns="http://www.w3.org/2000/svg">
    <path d="M816.653093 469.544049c-1.49505-1.49505-3.060709-2.874467-4.676509-4.15974L428.47519 79.895655c-21.351284-21.350261-55.967686-21.350261-77.317946 0-21.350261 21.351284-21.350261 55.966663 0 77.317946l349.259522 351.247806L343.656409 864.883049c-21.350261 21.351284-21.350261 55.966663 0 77.31897 21.350261 21.350261 55.966663 21.350261 77.317946 0l390.998135-390.661468c1.616824-1.286296 3.183506-2.664689 4.679579-4.160763 10.740622-10.740622 16.07307-24.839735 16.006556-38.917358C832.726164 494.38276 827.393715 480.284671 816.653093 469.544049z" />
</svg>