<?xml version="1.0" standalone="no"?><!DOCTYPE svg PUBLIC "-//W3C//DTD SVG 1.1//EN" "http://www.w3.org/Graphics/SVG/1.1/DTD/svg11.dtd">
<svg class="icon" width="48px" height="48.00px" viewBox="0 0 1024 1024" version="1.1"
    xmlns="http://www.w3.org/2000/svg">
    <path d="M517.368686 386.603886c-68.564114 0-124.342857 55.778743-124.342857 124.342857s55.778743 124.342857 124.342857 124.342857 124.342857-55.778743 124.342857-124.342857S585.9328 386.603886 517.368686 386.603886zM517.368686 606.032457c-52.516571 0-95.085714-42.569143-95.085714-95.085714s42.569143-95.085714 95.085714-95.085714 95.085714 42.569143 95.085714 95.085714S569.885257 606.032457 517.368686 606.032457zM642.442971 321.799314c-6.743771-4.476343-15.828114-2.633143-20.2752 4.125257-4.461714 6.729143-2.618514 15.798857 4.125257 20.2752 55.442286 36.732343 88.561371 98.318629 88.561371 164.746971 0 8.0896 6.538971 14.628571 14.628571 14.628571s14.628571-6.538971 14.628571-14.628571C744.111543 434.673371 706.121143 363.973486 642.442971 321.799314zM517.368686 313.461029c13.750857 0 27.501714 1.4336 40.886857 4.227657 1.009371 0.219429 2.018743 0.3072 3.013486 0.3072 6.773029 0 12.858514-4.725029 14.306743-11.629714 1.653029-7.899429-3.393829-15.652571-11.307886-17.320229-15.345371-3.232914-31.114971-4.856686-46.884571-4.856686-8.0896 0-14.628571 6.538971-14.628571 14.628571S509.279086 313.461029 517.368686 313.461029zM939.432229 403.499886l-91.662629 0c-6.846171-14.628571-16.091429-37.390629-27.530971-58.528914l35.459657-31.466057c22.864457-22.864457 22.864457-57.899886 0.014629-80.764343l-56.992914-55.983543c-10.971429-10.971429-25.863314-16.661943-41.384229-16.661943s-30.4128 6.421943-41.384229 17.393371l-38.282971 35.605943c-21.138286-11.454171-54.740114-20.553143-69.368686-27.413943L608.299886 108.661029c0-32.314514-20.494629-70.875429-52.809143-70.875429l-95.202743 0c-32.314514 0-56.788114 23.932343-56.788114 56.246857l0 91.662629c-29.257143 6.8608-38.897371 16.091429-60.035657 27.5456l-32.256-35.488914c-10.971429-10.971429-24.239543-17.144686-39.760457-17.144686-15.520914 0-29.5936 6.173257-40.579657 17.144686l-56.583314 56.992914c-22.864457 22.864457-22.645029 59.904 0.219429 82.753829l35.562057 27.472457c-11.439543 21.138286-20.5824 43.900343-27.428571 58.528914L90.975086 403.499886c-32.314514 0-53.189486 27.530971-53.189486 59.845486l0 95.188114c0 32.314514 35.503543 49.7664 67.818057 49.7664l77.019429 0c6.8608 14.628571 16.106057 49.7664 27.5456 70.890057l-35.459657 37.653943c-22.864457 22.8352-22.864457 60.986514-0.014629 83.836343l56.992914 57.534171c10.971429 10.971429 25.863314 17.437257 41.384229 17.437257s30.4128-6.056229 41.384229-17.027657l29.023086-35.401143c21.138286 11.454171 30.778514 20.743314 60.035657 27.604114l0 77.034057c0 32.314514 39.102171 46.153143 71.416686 46.153143l80.574171 0c32.314514 0 52.809143-13.838629 52.809143-46.153143l0-77.034057c14.628571-6.8608 48.2304-16.091429 69.368686-27.5456l36.864 35.488914c10.971429 10.971429 26.580114 17.144686 42.115657 17.144686 15.520914 0 30.734629-6.173257 41.720686-17.144686l57.183086-56.992914c22.849829-22.864457 22.908343-59.904 0.058514-82.7392l-35.386514-39.848229c11.439543-21.109029 20.714057-56.261486 27.574857-70.890057l77.019429 0c32.314514 0 49.210514-17.451886 49.210514-49.7664l0-80.559543C974.014171 445.659429 971.746743 403.499886 939.432229 403.499886zM915.499886 549.7856l-114.702629 0c-6.656 43.885714-25.014857 97.631086-55.164343 137.567086l68.681143 70.8608-56.992914 58.104686-71.533714-68.183771c-39.965257 30.164114-92.145371 49.064229-136.031086 55.734857l0 111.645257-87.771429 0 0-111.645257c-43.885714-6.656-86.747429-25.014857-126.727314-55.164343l-65.462857 68.7104L214.454857 760.393143l69.485714-73.040457c-30.149486-39.936-47.689143-93.681371-54.345143-137.567086L96.299886 549.7856l0-87.771429 133.295543 0c6.656-43.885714 25.014857-85.240686 55.164343-125.220571l-68.681143-64.687543 56.992914-55.003429 62.229943 69.7344c39.965257-30.164114 82.8416-47.528229 126.727314-54.184229L462.0288 96.299886l87.771429 0 0 136.352914c43.885714 6.656 96.0512 25.014857 136.031086 55.164343l70.100114-68.7104 57.709714 56.992914-68.359314 60.679314c30.149486 39.965257 48.874057 81.334857 55.530057 125.220571l114.702629 0L915.514514 549.7856zM415.758629 668.3648c-55.442286-36.732343-88.561371-98.318629-88.561371-164.746971 0-8.0896-6.538971-14.628571-14.628571-14.628571s-14.628571 6.538971-14.628571 14.628571c0 76.273371 38.005029 146.973257 101.668571 189.147429 2.486857 1.6384 5.280914 2.428343 8.060343 2.428343 4.739657 0 9.406171-2.296686 12.214857-6.5536C424.3456 681.910857 422.5024 672.841143 415.758629 668.3648z" />
</svg>