<?xml version="1.0" standalone="no"?><!DOCTYPE svg PUBLIC "-//W3C//DTD SVG 1.1//EN" "http://www.w3.org/Graphics/SVG/1.1/DTD/svg11.dtd">
<svg class="icon" width="48px" height="48.00px" viewBox="0 0 1024 1024" version="1.1"
    xmlns="http://www.w3.org/2000/svg">
    <path d="M848 160a48 48 0 0 0 0-96h-672a48 48 0 0 0 0 96h672zM608 960a32 32 0 0 0 32-32V544h156.8a32 32 0 0 0 22.624-54.624l-284.8-284.8a32 32 0 0 0-45.248 0l-284.8 284.8A32 32 0 0 0 227.232 544H384v384a32 32 0 0 0 32 32h192z" />
</svg>